<?xml version="1.0" encoding="utf-8"?>
<svg version="1.1" xmlns:xlink="http://www.w3.org/1999/xlink" width="18px" height="16px" xmlns="http://www.w3.org/2000/svg">
  <g transform="matrix(1 0 0 1 -34 -181 )">
    <path d="M 8.394618834080717 12  L 8.959641255605382 12  L 10.130044843049326 10.681818181818182  L 8.596412556053812 8.954545454545453  L 7.426008968609866 10.272727272727273  L 7.426008968609866 10.90909090909091  L 8.394618834080717 10.90909090909091  L 8.394618834080717 12  Z M 13.3890134529148 4.193181818181818  C 13.503363228699554 4.064393939393938  13.506726457399104 3.9393939393939377  13.399103139013453 3.8181818181818183  C 13.291479820627803 3.6969696969696955  13.180493273542602 3.7007575757575744  13.066143497757846 3.829545454545455  L 9.534753363228699 7.806818181818182  C 9.420403587443946 7.9356060606060606  9.417040358744394 8.060606060606059  9.524663677130045 8.181818181818182  C 9.632286995515695 8.303030303030303  9.743273542600898 8.299242424242422  9.85762331838565 8.170454545454547  L 13.3890134529148 4.193181818181818  Z M 14.004484304932737 10.238636363636363  C 14.1390134529148 10.299242424242422  14.206278026905828 10.40909090909091  14.206278026905828 10.568181818181818  L 14.206278026905828 12.727272727272727  C 14.206278026905828 13.628787878787879  13.922085201793724 14.399621212121213  13.353699551569505 15.039772727272727  C 12.785313901345294 15.679924242424242  12.100896860986548 16  11.300448430493274 16  L 2.905829596412556 16  C 2.1053811659192827 16  1.420964125560538 15.679924242424242  0.8525784753363228 15.039772727272727  C 0.2841928251121076 14.399621212121213  0 13.628787878787879  0 12.727272727272727  L 0 3.2727272727272734  C 0 2.3712121212121193  0.2841928251121076 1.6003787878787872  0.8525784753363228 0.9602272727272734  C 1.420964125560538 0.320075757575756  2.1053811659192827 0  2.905829596412556 0  L 11.300448430493274 0  C 11.724215246636772 0  12.117713004484305 0.09469696969696884  12.480941704035875 0.2840909090909083  C 12.581838565022421 0.33712121212121104  12.64237668161435 0.42424242424242387  12.66255605381166 0.545454545454545  C 12.682735426008968 0.6742424242424239  12.652466367713004 0.7840909090909083  12.571748878923767 0.875  L 12.077354260089685 1.4318181818181817  C 11.983183856502242 1.5378787878787872  11.875560538116593 1.5681818181818183  11.754484304932737 1.5227272727272734  C 11.599775784753364 1.4772727272727266  11.448430493273543 1.454545454545455  11.300448430493274 1.454545454545455  L 2.905829596412556 1.454545454545455  C 2.461883408071749 1.454545454545455  2.081838565022422 1.632575757575756  1.7656950672645741 1.9886363636363633  C 1.4495515695067267 2.344696969696969  1.2914798206278026 2.7727272727272734  1.2914798206278026 3.2727272727272734  L 1.2914798206278026 12.727272727272727  C 1.2914798206278026 13.227272727272727  1.4495515695067267 13.655303030303028  1.7656950672645741 14.011363636363637  C 2.081838565022422 14.367424242424242  2.461883408071749 14.545454545454545  2.905829596412556 14.545454545454545  L 11.300448430493274 14.545454545454545  C 11.74439461883408 14.545454545454545  12.124439461883409 14.367424242424242  12.440582959641256 14.011363636363637  C 12.756726457399104 13.655303030303028  12.914798206278027 13.227272727272727  12.914798206278027 12.727272727272727  L 12.914798206278027 11.295454545454547  C 12.914798206278027 11.196969696969695  12.945067264573993 11.113636363636363  13.00560538116592 11.045454545454547  L 13.65134529147982 10.318181818181818  C 13.752242152466367 10.204545454545453  13.869955156950674 10.178030303030303  14.004484304932737 10.238636363636363  Z M 6.457399103139013 9.818181818181818  L 13.237668161434978 2.1818181818181817  L 16.143497757847534 5.454545454545455  L 9.363228699551568 13.09090909090909  L 6.457399103139013 13.09090909090909  L 6.457399103139013 9.818181818181818  Z M 18 2.9090909090909083  C 18 3.212121212121211  17.905829596412556 3.469696969696969  17.717488789237667 3.6818181818181817  L 16.789237668161434 4.727272727272727  L 13.883408071748878 1.454545454545455  L 14.811659192825113 0.4090909090909083  C 15 0.19696969696969546  15.228699551569507 0.09090909090909172  15.497757847533633 0.09090909090909172  C 15.766816143497758 0.09090909090909172  15.995515695067265 0.19696969696969546  16.183856502242154 0.4090909090909083  L 17.717488789237667 2.1363636363636367  C 17.905829596412556 2.348484848484846  18 2.6060606060606055  18 2.9090909090909083  Z " fill-rule="nonzero" fill="#333333" stroke="none" transform="matrix(1 0 0 1 34 181 )" />
  </g>
</svg>