<?xml version="1.0" encoding="utf-8"?>
<svg version="1.1" xmlns:xlink="http://www.w3.org/1999/xlink" width="13px" height="15px" xmlns="http://www.w3.org/2000/svg">
  <g transform="matrix(1 0 0 1 -564 -111 )">
    <path d="M 9.783854166666666 0.569196428571429  L 12.424479166666666 3.180803571428571  C 12.582465277777779 3.3370535714285703  12.717881944444445 3.5491071428571437  12.830729166666666 3.8169642857142856  C 12.94357638888889 4.084821428571429  13 4.330357142857142  13 4.553571428571429  L 13 14.196428571428571  C 13 14.419642857142858  12.921006944444443 14.609374999999998  12.763020833333334 14.765625  C 12.605034722222223 14.921875000000002  12.413194444444445 15  12.1875 15  L 0.8125 15  C 0.5868055555555556 15  0.3949652777777778 14.921875000000002  0.23697916666666669 14.765625  C 0.07899305555555555 14.609374999999998  0 14.419642857142858  0 14.196428571428571  L 0 0.803571428571429  C 0 0.5803571428571425  0.07899305555555555 0.39062499999999944  0.23697916666666669 0.234375  C 0.3949652777777778 0.07812500000000056  0.5868055555555556 0  0.8125 0  L 8.395833333333334 0  C 8.621527777777779 0  8.869791666666666 0.05580357142857206  9.140625 0.16741071428571452  C 9.411458333333334 0.279017857142857  9.625868055555557 0.41294642857142794  9.783854166666666 0.569196428571429  Z M 9.013671875 1.3225446428571437  C 8.945963541666666 1.2555803571428563  8.83029513888889 1.1941964285714268  8.666666666666666 1.1383928571428563  L 8.666666666666666 4.285714285714286  L 11.848958333333334 4.285714285714286  C 11.792534722222223 4.123883928571427  11.73046875 4.009486607142857  11.662760416666666 3.942522321428571  L 9.013671875 1.3225446428571437  Z M 1 14  L 11.916666666666666 14  L 11.916666666666666 5.357142857142857  L 8.395833333333334 5.357142857142857  C 8.17013888888889 5.357142857142857  7.978298611111112 5.279017857142856  7.8203125 5.122767857142857  C 7.662326388888888 4.966517857142857  7.583333333333334 4.776785714285713  7.583333333333334 4.553571428571429  L 7.583333333333334 1.071428571428571  L 1 1.071428571428571  L 1 14  Z M 4.299479166666667 11.969866071428571  L 3.520833333333333 11.969866071428571  L 3.520833333333333 12.857142857142858  L 6.288411458333333 12.857142857142858  L 6.288411458333333 11.969866071428571  L 5.501302083333333 11.969866071428571  L 5.501302083333333 10.571986607142858  L 6.660807291666666 10.571986607142858  C 7.089626736111112 10.571986607142858  7.422526041666666 10.530133928571429  7.659505208333334 10.446428571428571  C 8.037543402777779 10.318080357142856  8.337999131944445 10.075334821428571  8.560872395833334 9.718191964285715  C 8.783745659722223 9.361049107142858  8.895182291666666 8.953683035714285  8.895182291666666 8.49609375  C 8.895182291666666 8.044084821428571  8.79079861111111 7.650669642857142  8.58203125 7.315848214285714  C 8.37326388888889 6.981026785714286  8.091145833333334 6.73828125  7.735677083333334 6.587611607142857  C 7.46484375 6.481584821428571  7.098090277777779 6.428571428571429  6.635416666666666 6.428571428571429  L 3.520833333333333 6.428571428571429  L 3.520833333333333 7.32421875  L 4.299479166666667 7.32421875  L 4.299479166666667 11.969866071428571  Z M 7.168619791666666 9.500558035714285  C 6.993706597222224 9.584263392857142  6.77365451388889 9.626116071428571  6.508463541666666 9.626116071428571  L 5.501302083333333 9.626116071428571  L 5.501302083333333 7.3828125  L 6.516927083333334 7.3828125  C 6.810329861111112 7.3828125  7.044487847222224 7.433035714285714  7.219401041666666 7.533482142857142  C 7.53537326388889 7.717633928571429  7.693359375000002 8.038504464285714  7.693359375 8.49609375  C 7.693359375000002 8.992745535714286  7.518446180555556 9.327566964285714  7.168619791666666 9.500558035714285  Z " fill-rule="nonzero" fill="#909090" stroke="none" transform="matrix(1 0 0 1 564 111 )" />
  </g>
</svg>