<?xml version="1.0" encoding="utf-8"?>
<svg version="1.1" xmlns:xlink="http://www.w3.org/1999/xlink" width="20px" height="20px" xmlns="http://www.w3.org/2000/svg">
  <g transform="matrix(1 0 0 1 -32 -404 )">
    <path d="M 3.6363636363636367 14.545454545454547  L 5.454545454545454 14.545454545454547  L 5.454545454545454 16.363636363636363  L 3.6363636363636367 16.363636363636363  L 3.6363636363636367 14.545454545454547  Z M 3.6363636363636367 3.6363636363636354  L 5.454545454545454 3.6363636363636354  L 5.454545454545454 5.454545454545454  L 3.6363636363636367 5.454545454545454  L 3.6363636363636367 3.6363636363636354  Z M 14.545454545454547 3.6363636363636354  L 16.363636363636363 3.6363636363636354  L 16.363636363636363 5.454545454545454  L 14.545454545454547 5.454545454545454  L 14.545454545454547 3.6363636363636354  Z M 1.8181818181818183 12.727272727272727  L 1.8181818181818183 18.167613636363637  L 7.272727272727273 18.167613636363637  L 7.272727272727273 12.727272727272727  L 1.8181818181818183 12.727272727272727  Z M 1.8181818181818183 1.8181818181818188  L 1.8181818181818183 7.272727272727273  L 7.272727272727273 7.272727272727273  L 7.272727272727273 1.8181818181818188  L 1.8181818181818183 1.8181818181818188  Z M 12.727272727272727 1.8181818181818188  L 12.727272727272727 7.272727272727273  L 18.18181818181818 7.272727272727273  L 18.18181818181818 1.8181818181818188  L 12.727272727272727 1.8181818181818188  Z M 0 10.909090909090908  L 9.09090909090909 10.909090909090908  L 9.09090909090909 20  L 0 20  L 0 10.909090909090908  Z M 14.545454545454547 18.18181818181818  L 16.363636363636363 18.18181818181818  L 16.363636363636363 20  L 14.545454545454547 20  L 14.545454545454547 18.18181818181818  Z M 18.18181818181818 18.18181818181818  L 20 18.18181818181818  L 20 20  L 18.18181818181818 20  L 18.18181818181818 18.18181818181818  Z M 18.18181818181818 10.909090909090908  L 20 10.909090909090908  L 20 16.363636363636363  L 14.545454545454547 16.363636363636363  L 14.545454545454547 14.545454545454547  L 12.727272727272727 14.545454545454547  L 12.727272727272727 20  L 10.909090909090908 20  L 10.909090909090908 10.909090909090908  L 16.363636363636363 10.909090909090908  L 16.363636363636363 12.727272727272727  L 18.18181818181818 12.727272727272727  L 18.18181818181818 10.909090909090908  Z M 0 0  L 9.09090909090909 0  L 9.09090909090909 9.090909090909092  L 0 9.090909090909092  L 0 0  Z M 10.909090909090908 0  L 20 0  L 20 9.090909090909092  L 10.909090909090908 9.090909090909092  L 10.909090909090908 0  Z " fill-rule="nonzero" fill="#333333" stroke="none" transform="matrix(1 0 0 1 32 404 )" />
  </g>
</svg>