<?xml version="1.0" encoding="utf-8"?>
<svg version="1.1" xmlns:xlink="http://www.w3.org/1999/xlink" width="19px" height="16px" xmlns="http://www.w3.org/2000/svg">
  <g transform="matrix(1 0 0 1 -32 -233 )">
    <path d="M 15.858087793144918 8.78409090909091  C 16.010422930446985 8.844696969696969  16.086590499098016 8.954545454545453  16.086590499098016 9.113636363636363  L 16.086590499098016 12.727272727272727  C 16.086590499098016 13.628787878787879  15.764782521547406 14.399621212121213  15.121166566446183 15.039772727272727  C 14.47755061134496 15.679924242424242  13.702545600320708 16  12.796151533373422 16  L 3.2904389657245945 16  C 2.3840448987773106 16  1.609039887753057 15.679924242424242  0.965423932651834 15.039772727272727  C 0.3218079775506113 14.399621212121213  0 13.628787878787879  0 12.727272727272727  L 0 3.2727272727272734  C 0 2.3712121212121193  0.3218079775506113 1.6003787878787872  0.965423932651834 0.9602272727272734  C 1.609039887753057 0.320075757575756  2.3840448987773106 0  3.2904389657245945 0  L 12.796151533373422 0  C 13.276007215874925 0  13.721587492483463 0.09469696969696884  14.132892363199037 0.2840909090909083  C 14.247143716175586 0.33712121212121104  14.315694527961515 0.42424242424242387  14.338544798556827 0.545454545454545  C 14.361395069152135 0.6742424242424239  14.32711966325917 0.7840909090909083  14.235718580877933 0.875  L 13.675886951292844 1.4318181818181817  C 13.599719382641814 1.507575757575756  13.512126678693125 1.545454545454545  13.413108839446783 1.545454545454545  C 13.390258568851474 1.545454545454545  13.355983162958509 1.5378787878787872  13.31028262176789 1.5227272727272734  C 13.135097213870516 1.4772727272727266  12.963720184405693 1.454545454545455  12.796151533373422 1.454545454545455  L 3.2904389657245945 1.454545454545455  C 2.7877330126277813 1.454545454545455  2.357386249749449 1.632575757575756  1.999398677089597 1.9886363636363633  C 1.6414111044297457 2.344696969696969  1.4624173180998197 2.7727272727272734  1.4624173180998197 3.2727272727272734  L 1.4624173180998197 12.727272727272727  C 1.4624173180998197 13.227272727272727  1.6414111044297457 13.655303030303028  1.999398677089597 14.011363636363637  C 2.357386249749449 14.367424242424242  2.7877330126277813 14.545454545454545  3.2904389657245945 14.545454545454545  L 12.796151533373422 14.545454545454545  C 13.298857486470233 14.545454545454545  13.729204249348568 14.367424242424242  14.087191822008418 14.011363636363637  C 14.445179394668273 13.655303030303028  14.624173180998197 13.227272727272727  14.624173180998197 12.727272727272727  L 14.624173180998197 9.84090909090909  C 14.624173180998197 9.742424242424242  14.65844858689116 9.65909090909091  14.72699939867709 9.59090909090909  L 15.458208057727 8.863636363636363  C 15.534375626378033 8.787878787878787  15.621968330326721 8.75  15.720986169573061 8.75  C 15.76668671076368 8.75  15.812387251954299 8.761363636363637  15.858087793144918 8.78409090909091  Z M 19 2.9090909090909083  C 19 3.1590909090909083  18.90859891761876 3.375  18.725796752856287 3.5568181818181817  L 9.425736620565244 12.806818181818182  C 9.242934455802768 12.988636363636363  9.025856885147325 13.079545454545455  8.774503908598918 13.079545454545455  C 8.52315093205051 13.079545454545455  8.306073361395068 12.988636363636363  8.123271196632592 12.806818181818182  L 3.2104630186410104 7.920454545454545  C 3.027660853878533 7.738636363636363  2.9362597714972942 7.522727272727273  2.9362597714972942 7.272727272727273  C 2.9362597714972942 7.022727272727272  3.027660853878533 6.80681818181818  3.2104630186410104 6.625  L 4.467227901383042 5.375  C 4.65003006614552 5.193181818181818  4.867107636800962 5.102272727272727  5.118460613349368 5.102272727272727  C 5.369813589897776 5.102272727272727  5.586891160553217 5.193181818181818  5.769693325315695 5.375  L 8.774503908598918 8.363636363636363  L 16.1665664461816 1.0113636363636367  C 16.34936861094408 0.829545454545455  16.566446181599517 0.7386363636363633  16.817799158147928 0.7386363636363633  C 17.06915213469633 0.7386363636363633  17.286229705351776 0.829545454545455  17.469031870114254 1.0113636363636367  L 18.725796752856287 2.2613636363636367  C 18.90859891761876 2.4431818181818183  19 2.6590909090909083  19 2.9090909090909083  Z " fill-rule="nonzero" fill="#0ecf85" stroke="none" transform="matrix(1 0 0 1 32 233 )" />
  </g>
</svg>