<?xml version="1.0" encoding="utf-8"?>
<svg version="1.1" xmlns:xlink="http://www.w3.org/1999/xlink" width="8px" height="11px" xmlns="http://www.w3.org/2000/svg">
  <g transform="matrix(1 0 0 1 -411 -50 )">
    <path d="M 7.86254295532646 5.246492985971944  C 7.954180985108821 5.319973279893119  8 5.404475617902471  8 5.5  C 8 5.595524382097528  7.954180985108821 5.68002672010688  7.86254295532646 5.753507014028056  L 1.4570446735395188 10.889779559118237  C 1.3654066437571593 10.963259853039412  1.2600229095074456 11  1.140893470790378 11  C 1.0217640320733106 11  0.9163802978235969 10.963259853039412  0.8247422680412371 10.889779559118237  L 0.13745704467353953 10.33867735470942  C 0.04581901489117987 10.265197060788243  0 10.180694722778892  0 10.085170340681362  C 0 9.989645958583834  0.04581901489117987 9.905143620574483  0.13745704467353953 9.831663326653306  L 5.5395189003436425 5.5  L 0.13745704467353953 1.1683366733466933  C 0.04581901489117987 1.0948563794255173  0 1.0103540414161651  0 0.9148296593186376  C 0 0.8193052772211075  0.04581901489117987 0.7348029392117555  0.13745704467353953 0.6613226452905806  L 0.8247422680412371 0.11022044088176364  C 0.9163802978235969 0.03674014696058747  1.0217640320733106 0  1.140893470790378 0  C 1.2600229095074456 0  1.3654066437571593 0.03674014696058747  1.4570446735395188 0.11022044088176364  L 7.86254295532646 5.246492985971944  Z " fill-rule="nonzero" fill="#dbdbdb" stroke="none" transform="matrix(1 0 0 1 411 50 )" />
  </g>
</svg>