<?xml version="1.0" encoding="utf-8"?>
<svg version="1.1" xmlns:xlink="http://www.w3.org/1999/xlink" width="16px" height="15px" xmlns="http://www.w3.org/2000/svg">
  <g transform="matrix(1 0 0 1 -388 -112 )">
    <path d="M 6.350055741360089 4.273809523809524  L 6.350055741360089 10.261904761904763  L 10.666666666666666 7.2857142857142865  L 6.350055741360089 4.273809523809524  Z M 2.408026755852843 0.21428571428571352  C 3.9004087699739878 0.07142857142857117  5.764399851356372 0  8 0  C 8.998885172798216 0  9.963582311408398 0.017857142857142794  10.894091415830546 0.05357142857142838  C 11.824600520252696 0.08928571428571397  12.506874767744334 0.12698412698412598  12.940914158305462 0.16666666666666607  L 13.591973244147157 0.21428571428571352  C 13.597918989223338 0.21428571428571352  13.648457822370867 0.22023809523809446  13.743589743589743 0.23214285714285632  C 13.838721664808622 0.24404761904761985  13.907097733184692 0.2559523809523817  13.948717948717949 0.26785714285714357  C 13.990338164251208 0.27976190476190543  14.060200668896321 0.2976190476190482  14.158305462653288 0.32142857142857195  C 14.256410256410257 0.3452380952380957  14.341137123745819 0.3769841269841251  14.412486064659978 0.41666666666666685  C 14.483835005574136 0.4563492063492053  14.567075436640655 0.5079365079365056  14.66220735785953 0.5714285714285711  C 14.757339279078412 0.6349206349206332  14.8494983277592 0.712301587301587  14.938684503901895 0.803571428571429  C 15.027870680044595 0.8948412698412678  15.114083983649204 0.9999999999999998  15.19732441471572 1.1190476190476184  C 15.232998885172798 1.1666666666666659  15.279078409513193 1.2400793650793633  15.335562987736902 1.3392857142857144  C 15.392047565960612 1.4384920634920624  15.478260869565219 1.6706349206349203  15.594202898550725 2.035714285714285  C 15.710144927536234 2.4007936507936485  15.788926049795617 2.8015873015873005  15.830546265328874 3.238095238095238  C 15.878112225938315 3.7460317460317456  15.915273132664439 4.287698412698412  15.942028985507246 4.863095238095237  C 15.968784838350057 5.438492063492063  15.985135637309552 5.8888888888888875  15.99108138238573 6.2142857142857135  L 15.99108138238573 6.69047619047619  L 15.99108138238573 8.30952380952381  C 15.99702712746191 9.460317460317459  15.943515421776292 10.61111111111111  15.830546265328874 11.761904761904761  C 15.788926049795617 12.1984126984127  15.71460423634337 12.593253968253967  15.60758082497213 12.946428571428573  C 15.500557413600895 13.299603174603176  15.405425492382015 13.543650793650794  15.322185061315496 13.678571428571429  L 15.19732441471572 13.880952380952381  C 15.114083983649204 14  15.027870680044595 14.10515873015873  14.938684503901895 14.196428571428571  C 14.8494983277592 14.287698412698413  14.757339279078412 14.363095238095239  14.66220735785953 14.422619047619047  C 14.567075436640655 14.482142857142858  14.483835005574136 14.531746031746033  14.412486064659978 14.571428571428571  C 14.341137123745819 14.611111111111109  14.256410256410257 14.642857142857142  14.158305462653288 14.666666666666666  C 14.060200668896321 14.69047619047619  13.988851727982162 14.708333333333332  13.944258639910814 14.720238095238095  C 13.899665551839465 14.732142857142856  13.831289483463397 14.744047619047619  13.73913043478261 14.75595238095238  C 13.646971386101821 14.767857142857144  13.597918989223338 14.773809523809526  13.591973244147157 14.773809523809526  C 12.099591230026013 14.924603174603176  10.235600148643627 15  8 15  C 6.769230769230769 14.984126984126986  5.70048309178744 14.958333333333334  4.793756967670011 14.922619047619047  C 3.8870308435525827 14.886904761904763  3.290969899665552 14.857142857142858  3.0055741360089185 14.833333333333334  L 2.568561872909699 14.785714285714286  L 2.2474916387959865 14.738095238095237  C 2.0334448160535117 14.6984126984127  1.8714232627276106 14.658730158730156  1.7614269788182833 14.619047619047619  C 1.6514306949089559 14.57936507936508  1.4998141954663695 14.496031746031747  1.306577480490524 14.36904761904762  C 1.1133407655146785 14.24206349206349  0.9453734671125975 14.07936507936508  0.802675585284281 13.880952380952381  C 0.7670011148272018 13.833333333333334  0.7209215904868079 13.759920634920634  0.6644370122630993 13.660714285714285  C 0.6079524340393906 13.561507936507939  0.5217391304347826 13.329365079365079  0.4057971014492754 12.964285714285715  C 0.2898550724637681 12.599206349206348  0.211073950204385 12.1984126984127  0.16945373467112598 11.761904761904761  C 0.12188777406168712 11.253968253968253  0.084726867335563 10.712301587301587  0.057971014492753624 10.136904761904763  C 0.03121516164994426 9.561507936507933  0.014864362690449648 9.11111111111111  0.008918617614269788 8.785714285714285  L 0.008918617614269788 8.30952380952381  L 0.008918617614269788 6.69047619047619  C 0.0029728725380899286 5.539682539682539  0.056484578223708656 4.3888888888888875  0.16945373467112598 3.238095238095238  C 0.211073950204385 2.8015873015873005  0.2853957636566332 2.4067460317460294  0.39241917502787066 2.053571428571428  C 0.49944258639910816 1.700396825396825  0.5945745076179859 1.4563492063492052  0.6778149386845039 1.3214285714285716  L 0.802675585284281 1.1190476190476184  C 0.8859160163507991 0.9999999999999998  0.9721293199554069 0.8948412698412678  1.0613154960981048 0.803571428571429  C 1.1505016722408026 0.712301587301587  1.2426607209215905 0.6349206349206332  1.3377926421404682 0.5714285714285711  C 1.4329245633593461 0.5079365079365056  1.516164994425864 0.4563492063492053  1.5875139353400223 0.41666666666666685  C 1.6588628762541806 0.3769841269841251  1.7435897435897436 0.3452380952380957  1.8416945373467113 0.32142857142857195  C 1.9397993311036792 0.2976190476190482  2.0096618357487928 0.27976190476190543  2.051282051282051 0.26785714285714357  C 2.0929022668153103 0.2559523809523817  2.161278335191379 0.24404761904761985  2.2564102564102564 0.23214285714285632  C 2.3515421776291343 0.22023809523809446  2.4020810107766635 0.21428571428571352  2.408026755852843 0.21428571428571352  Z " fill-rule="nonzero" fill="#898989" stroke="none" transform="matrix(1 0 0 1 388 112 )" />
  </g>
</svg>