<?xml version="1.0" encoding="utf-8"?>
<svg version="1.1" xmlns:xlink="http://www.w3.org/1999/xlink" width="20px" height="16px" xmlns="http://www.w3.org/2000/svg">
  <g transform="matrix(1 0 0 1 -32 -285 )">
    <path d="M 14.2578125 2.057291666666666  C 12.937127976190476 1.5746527777777768  11.517857142857142 1.333333333333334  10 1.333333333333334  C 8.482142857142858 1.333333333333334  7.062872023809525 1.5746527777777768  5.7421875 2.057291666666666  C 4.421502976190476 2.5399305555555554  3.372395833333334 3.1909722222222214  2.5948660714285716 4.010416666666666  C 1.8173363095238095 4.829861111111109  1.4285714285714284 5.715277777777777  1.4285714285714284 6.666666666666666  C 1.4285714285714284 7.444444444444445  1.6945684523809526 8.18576388888889  2.2265625 8.890625  C 2.7585565476190474 9.59548611111111  3.5081845238095246 10.20486111111111  4.475446428571429 10.71875  L 5.446428571428571 11.239583333333332  L 5.1450892857142865 12.239583333333334  C 4.966517857142857 12.871527777777779  4.706101190476191 13.46875  4.363839285714286 14.03125  C 5.494791666666668 13.59375  6.517857142857143 13  7.4330357142857135 12.25  L 7.912946428571429 11.854166666666668  L 8.549107142857142 11.916666666666668  C 9.0625 11.972222222222221  9.546130952380953 12  10 12  C 11.517857142857142 12  12.937127976190476 11.758680555555554  14.2578125 11.276041666666668  C 15.578497023809526 10.793402777777775  16.627604166666668 10.14236111111111  17.405133928571427 9.322916666666668  C 18.18266369047619 8.503472222222221  18.571428571428573 7.618055555555555  18.571428571428573 6.666666666666666  C 18.571428571428573 5.715277777777777  18.18266369047619 4.829861111111109  17.405133928571427 4.010416666666666  C 16.627604166666668 3.1909722222222214  15.578497023809526 2.5399305555555554  14.2578125 2.057291666666666  Z M 18.660714285714285 3.317708333333334  C 19.553571428571427 4.3420138888888875  20 5.458333333333334  20 6.666666666666666  C 20 7.875  19.553571428571427 8.991319444444443  18.660714285714285 10.015625  C 17.767857142857142 11.039930555555554  16.555059523809526 11.848958333333332  15.022321428571427 12.442708333333334  C 13.489583333333336 13.036458333333334  11.81547619047619 13.333333333333334  10 13.333333333333334  C 9.479166666666668 13.333333333333334  8.939732142857142 13.305555555555555  8.381696428571429 13.25  C 6.908482142857143 14.465277777777779  5.1971726190476195 15.305555555555555  3.2477678571428568 15.770833333333334  C 2.8831845238095246 15.868055555555555  2.459077380952381 15.944444444444445  1.9754464285714284 16  L 1.9196428571428572 16  C 1.8080357142857142 16  1.7075892857142858 15.963541666666666  1.6183035714285716 15.890625  C 1.5290178571428572 15.817708333333334  1.469494047619048 15.722222222222221  1.4397321428571428 15.604166666666666  L 1.4397321428571428 15.59375  C 1.4174107142857144 15.565972222222223  1.4155505952380953 15.524305555555557  1.4341517857142858 15.46875  C 1.4527529761904765 15.413194444444445  1.4601934523809526 15.378472222222221  1.4564732142857142 15.364583333333334  C 1.4527529761904765 15.350694444444445  1.469494047619048 15.317708333333334  1.5066964285714284 15.265625  L 1.5736607142857142 15.171875  C 1.5736607142857142 15.171875  1.5997023809523812 15.142361111111112  1.6517857142857142 15.083333333333334  C 1.703869047619048 15.024305555555555  1.7336309523809526 14.993055555555555  1.7410714285714284 14.989583333333334  C 1.7931547619047623 14.934027777777779  1.9084821428571428 14.814236111111112  2.0870535714285716 14.630208333333334  C 2.265625 14.446180555555555  2.3939732142857144 14.314236111111112  2.4720982142857144 14.234375  C 2.5502232142857144 14.154513888888888  2.6655505952380953 14.017361111111112  2.8180803571428568 13.822916666666666  C 2.970610119047619 13.628472222222221  3.0915178571428568 13.451388888888888  3.1808035714285716 13.291666666666666  C 3.2700892857142856 13.131944444444445  3.3705357142857144 12.927083333333334  3.4821428571428568 12.677083333333334  C 3.59375 12.427083333333334  3.6904761904761907 12.163194444444445  3.7723214285714284 11.885416666666668  C 2.604166666666667 11.26736111111111  1.6834077380952381 10.503472222222221  1.0100446428571428 9.59375  C 0.3366815476190476 8.684027777777775  0 7.708333333333334  0 6.666666666666666  C 0 5.458333333333334  0.44642857142857145 4.3420138888888875  1.3392857142857142 3.317708333333334  C 2.2321428571428577 2.293402777777777  3.4449404761904763 1.484375  4.977678571428571 0.890625  C 6.510416666666668 0.296875  8.18452380952381 0  10 0  C 11.81547619047619 0  13.489583333333336 0.296875  15.022321428571427 0.890625  C 16.555059523809526 1.484375  17.767857142857142 2.293402777777777  18.660714285714285 3.317708333333334  Z " fill-rule="nonzero" fill="#333333" stroke="none" transform="matrix(1 0 0 1 32 285 )" />
  </g>
</svg>