<?xml version="1.0" encoding="utf-8"?>
<svg version="1.1" xmlns:xlink="http://www.w3.org/1999/xlink" width="17px" height="13px" xmlns="http://www.w3.org/2000/svg">
  <g transform="matrix(1 0 0 1 -769 -115 )">
    <path d="M 12.119140625 1.671549479166666  C 10.996558779761905 1.2794053819444438  9.790178571428571 1.083333333333334  8.5 1.083333333333334  C 7.209821428571429 1.083333333333334  6.003441220238096 1.2794053819444438  4.880859375 1.671549479166666  C 3.7582775297619047 2.063693576388889  2.8665364583333335 2.592664930555555  2.2056361607142856 3.258463541666666  C 1.5447358630952381 3.924262152777776  1.2142857142857142 4.643663194444444  1.2142857142857142 5.416666666666666  C 1.2142857142857142 6.048611111111112  1.4403831845238098 6.650933159722222  1.892578125 7.2236328125  C 2.3447730654761907 7.796332465277778  2.981956845238096 8.291449652777777  3.8041294642857144 8.708984375  L 4.629464285714286 9.132161458333332  L 4.373325892857143 9.944661458333334  C 4.221540178571429 10.458116319444445  4.000186011904762 10.943359375  3.709263392857143 11.400390625  C 4.670572916666667 11.044921875  5.540178571428571 10.5625  6.318080357142857 9.953125  L 6.726004464285714 9.631510416666668  L 7.266741071428571 9.682291666666668  C 7.703125 9.727430555555555  8.11421130952381 9.75  8.5 9.75  C 9.790178571428571 9.75  10.996558779761905 9.553927951388888  12.119140625 9.161783854166668  C 13.241722470238097 8.769639756944443  14.133463541666668 8.240668402777777  14.794363839285714 7.574869791666668  C 15.455264136904763 6.909071180555555  15.785714285714286 6.189670138888888  15.785714285714286 5.416666666666666  C 15.785714285714286 4.643663194444444  15.455264136904763 3.924262152777776  14.794363839285714 3.258463541666666  C 14.133463541666668 2.592664930555555  13.241722470238097 2.063693576388889  12.119140625 1.671549479166666  Z M 15.861607142857142 2.695638020833334  C 16.620535714285715 3.527886284722221  17 4.434895833333334  17 5.416666666666666  C 17 6.3984375  16.620535714285715 7.30544704861111  15.861607142857142 8.1376953125  C 15.102678571428571 8.969943576388888  14.071800595238097 9.627278645833332  12.768973214285714 10.109700520833334  C 11.466145833333334 10.592122395833334  10.043154761904763 10.833333333333334  8.5 10.833333333333334  C 8.057291666666668 10.833333333333334  7.598772321428571 10.81076388888889  7.124441964285714 10.765625  C 5.872209821428571 11.753038194444445  4.417596726190477 12.43576388888889  2.7606026785714284 12.813802083333334  C 2.450706845238096 12.89279513888889  2.0902157738095237 12.95486111111111  1.6791294642857142 13  L 1.6316964285714286 13  C 1.5368303571428572 13  1.4514508928571428 12.970377604166666  1.3755580357142858 12.9111328125  C 1.2996651785714286 12.851888020833334  1.2490699404761907 12.774305555555555  1.2237723214285714 12.678385416666666  L 1.2237723214285714 12.669921875  C 1.2047991071428574 12.647352430555557  1.203218005952381 12.61349826388889  1.2190290178571428 12.568359375  C 1.2348400297619049 12.52322048611111  1.2411644345238098 12.495008680555555  1.2380022321428572 12.483723958333334  C 1.2348400297619049 12.47243923611111  1.2490699404761907 12.445638020833334  1.2806919642857142 12.4033203125  L 1.3376116071428572 12.3271484375  C 1.3376116071428572 12.3271484375  1.359747023809524 12.303168402777779  1.4040178571428572 12.255208333333334  C 1.4482886904761907 12.20724826388889  1.4735863095238098 12.18185763888889  1.4799107142857142 12.179036458333334  C 1.524181547619048 12.133897569444445  1.6222098214285714 12.036566840277779  1.7739955357142858 11.887044270833334  C 1.92578125 11.73752170138889  2.034877232142857 11.630316840277779  2.101283482142857 11.5654296875  C 2.167689732142857 11.500542534722221  2.265718005952381 11.389105902777779  2.3953683035714284 11.231119791666666  C 2.5250186011904763 11.073133680555555  2.6277901785714284 10.929253472222221  2.7036830357142856 10.799479166666666  C 2.779575892857143 10.66970486111111  2.864955357142857 10.503255208333334  2.9598214285714284 10.300130208333334  C 3.0546875 10.097005208333334  3.136904761904762 9.88259548611111  3.2064732142857144 9.656901041666668  C 2.213541666666667 9.154730902777777  1.4308965773809523 8.534071180555555  0.8585379464285714 7.794921875  C 0.28617931547619047 7.055772569444442  0 6.263020833333334  0 5.416666666666666  C 0 4.434895833333334  0.3794642857142857 3.527886284722221  1.1383928571428572 2.695638020833334  C 1.8973214285714288 1.8633897569444438  2.9281994047619047 1.2060546875  4.231026785714286 0.7236328125  C 5.533854166666667 0.2412109375  6.956845238095239 0  8.5 0  C 10.043154761904763 0  11.466145833333334 0.2412109375  12.768973214285714 0.7236328125  C 14.071800595238097 1.2060546875  15.102678571428571 1.8633897569444438  15.861607142857142 2.695638020833334  Z " fill-rule="nonzero" fill="#909090" stroke="none" transform="matrix(1 0 0 1 769 115 )" />
  </g>
</svg>