<?xml version="1.0" encoding="utf-8"?>
<svg version="1.1" xmlns:xlink="http://www.w3.org/1999/xlink" width="12px" height="14px" xmlns="http://www.w3.org/2000/svg">
  <g transform="matrix(1 0 0 1 -654 -114 )">
    <path d="M 9.03125 0.5312500000000004  L 11.46875 2.9687499999999996  C 11.614583333333334 3.114583333333332  11.739583333333334 3.312500000000001  11.84375 3.5625  C 11.947916666666666 3.8125000000000004  12 4.041666666666666  12 4.25  L 12 13.25  C 12 13.458333333333334  11.927083333333332 13.635416666666666  11.78125 13.78125  C 11.635416666666668 13.927083333333334  11.458333333333334 14  11.25 14  L 0.75 14  C 0.5416666666666667 14  0.36458333333333337 13.927083333333334  0.21875 13.78125  C 0.07291666666666666 13.635416666666666  0 13.458333333333334  0 13.25  L 0 0.7500000000000004  C 0 0.5416666666666663  0.07291666666666666 0.3645833333333328  0.21875 0.21875  C 0.36458333333333337 0.07291666666666718  0.5416666666666667 0  0.75 0  L 7.75 0  C 7.958333333333334 0  8.1875 0.052083333333333925  8.4375 0.15625000000000022  C 8.6875 0.2604166666666665  8.885416666666668 0.3854166666666661  9.03125 0.5312500000000004  Z M 8.3203125 1.2343750000000007  C 8.2578125 1.1718749999999993  8.151041666666668 1.1145833333333317  8 1.0624999999999993  L 8 4  L 10.9375 4  C 10.885416666666668 3.8489583333333317  10.828125 3.742187499999999  10.765625 3.6796874999999996  L 8.3203125 1.2343750000000007  Z M 1 13  L 11 13  L 11 4.999999999999999  L 7.75 4.999999999999999  C 7.541666666666666 4.999999999999999  7.364583333333334 4.927083333333332  7.21875 4.781249999999999  C 7.072916666666666 4.635416666666666  7 4.458333333333331  7 4.25  L 7 0.9999999999999996  L 1 0.9999999999999996  L 1 13  Z M 3 6.749999999999999  L 3 6.25  C 3 6.177083333333332  3.0234375 6.1171875  3.0703125 6.0703125  C 3.117187500000001 6.0234375  3.177083333333334 6  3.25 6  L 8.75 6  C 8.822916666666668 6  8.8828125 6.0234375  8.9296875 6.0703125  C 8.9765625 6.1171875  9 6.177083333333332  9 6.25  L 9 6.749999999999999  C 9 6.822916666666666  8.9765625 6.8828125  8.9296875 6.9296875  C 8.8828125 6.976562500000001  8.822916666666668 7  8.75 7  L 3.25 7  C 3.177083333333334 7  3.117187500000001 6.976562500000001  3.0703125 6.9296875  C 3.0234375 6.8828125  3 6.822916666666666  3 6.749999999999999  Z M 3.25 8  L 8.75 8  C 8.822916666666668 8  8.8828125 8.0234375  8.9296875 8.0703125  C 8.9765625 8.1171875  9 8.177083333333332  9 8.25  L 9 8.75  C 9 8.822916666666666  8.9765625 8.8828125  8.9296875 8.9296875  C 8.8828125 8.9765625  8.822916666666668 9  8.75 9  L 3.25 9  C 3.177083333333334 9  3.117187500000001 8.9765625  3.0703125 8.9296875  C 3.0234375 8.8828125  3 8.822916666666666  3 8.75  L 3 8.25  C 3 8.177083333333332  3.0234375 8.1171875  3.0703125 8.0703125  C 3.117187500000001 8.0234375  3.177083333333334 8  3.25 8  Z M 3.25 10  L 8.75 10  C 8.822916666666668 10  8.8828125 10.0234375  8.9296875 10.0703125  C 8.9765625 10.1171875  9 10.177083333333334  9 10.25  L 9 10.75  C 9 10.822916666666666  8.9765625 10.8828125  8.9296875 10.9296875  C 8.8828125 10.9765625  8.822916666666668 11  8.75 11  L 3.25 11  C 3.177083333333334 11  3.117187500000001 10.9765625  3.0703125 10.9296875  C 3.0234375 10.8828125  3 10.822916666666666  3 10.75  L 3 10.25  C 3 10.177083333333334  3.0234375 10.1171875  3.0703125 10.0703125  C 3.117187500000001 10.0234375  3.177083333333334 10  3.25 10  Z " fill-rule="nonzero" fill="#0ecf85" stroke="none" transform="matrix(1 0 0 1 654 114 )" />
  </g>
</svg>