<?xml version="1.0" encoding="utf-8"?>
<svg version="1.1" xmlns:xlink="http://www.w3.org/1999/xlink" width="21px" height="16px" xmlns="http://www.w3.org/2000/svg">
  <g transform="matrix(1 0 0 1 -31 -354 )">
    <path d="M 11.601562499999998 2.0440028388928315  C 10.5625 1.6503430328838409  9.4453125 1.4535131298793473  8.25 1.4535131298793473  C 7.0546875 1.4535131298793473  5.9375 1.6503430328838409  4.8984375 2.0440028388928315  C 3.8593750000000004 2.4376626449018204  3.0332031250000004 2.971374497279392  2.419921875 3.6451383960255495  C 1.8066406250000002 4.318902294771705  1.5 5.041873669268984  1.5 5.8140525195173876  C 1.5 6.4348237520700255  1.7070312500000004 7.032883841968298  2.12109375 7.608232789212208  C 2.5351562500000004 8.183581736456116  3.1171875 8.68322687485214  3.8671875000000004 9.107168204400285  L 5.00390625 9.743080198722499  L 4.59375 10.69694819020582  C 4.859375000000001 10.545540572510053  5.101562500000001 10.397918145256682  5.3203125 10.254080908445706  L 5.8359375 9.902058197303052  L 6.457031249999999 10.015613910574876  C 7.06640625 10.121599242961913  7.6640625 10.17459190915543  8.25 10.17459190915543  C 9.4453125 10.17459190915543  10.5625 9.977762006150936  11.601562499999998 9.584102200141945  C 12.640625 9.190442394132955  13.466796875000002 8.656730541755381  14.080078125 7.982966643009226  C 14.693359375000002 7.30920274426307  15 6.586231369765791  15 5.8140525195173876  C 15 5.041873669268984  14.693359375000002 4.318902294771705  14.080078125 3.6451383960255495  C 13.466796875000002 2.971374497279392  12.640625 2.4376626449018204  11.601562499999998 2.0440028388928315  Z M 4.107421875 0.7778566359119949  C 5.376953125 0.2592855453039977  6.757812500000001 0  8.25 0  C 9.742187500000002 0  11.123046875 0.2592855453039977  12.392578125000002 0.7778566359119949  C 13.662109375000002 1.2964277265199886  14.664062500000002 2.002365744026495  15.3984375 2.8956706884315118  C 16.1328125 3.788975632836525  16.5 4.761769576531819  16.5 5.8140525195173876  C 16.5 6.866335462502956  16.1328125 7.839129406198248  15.3984375 8.732434350603265  C 14.664062500000002 9.625739295008279  13.662109375000002 10.331677312514785  12.392578125000002 10.850248403122782  C 11.123046875 11.368819493730776  9.742187500000002 11.628105039034777  8.25 11.628105039034777  C 7.578125000000001 11.628105039034777  6.890625 11.567541991956467  6.1875 11.44641589779986  C 5.218750000000001 12.112609415661225  4.132812500000001 12.597113792287674  2.9296875 12.899929027679205  C 2.6484375 12.9680624556423  2.3125000000000004 13.028625502720605  1.9218749999999998 13.081618168914122  L 1.88671875 13.081618168914122  C 1.8007812500000002 13.081618168914122  1.7207031250000002 13.05133664537497  1.6464843750000002 12.990773598296665  C 1.572265625 12.930210551218359  1.52734375 12.850721551928082  1.5117187499999998 12.752306600425834  C 1.5039062500000002 12.729595457771469  1.5 12.704991719895906  1.5 12.678495386799149  C 1.5 12.65199905370239  1.5019531250000004 12.627395315826828  1.505859375 12.604684173172462  C 1.509765625 12.581973030518098  1.517578125 12.559261887863734  1.529296875 12.536550745209368  L 1.55859375 12.479772888573457  C 1.55859375 12.479772888573457  1.572265625 12.45895434114029  1.599609375 12.417317246273953  C 1.6269531250000002 12.375680151407616  1.6425781250000002 12.356754199195649  1.6464843750000002 12.360539389638042  C 1.650390625 12.364324580080435  1.6679687500000002 12.345398627868466  1.69921875 12.30376153300213  C 1.7304687500000002 12.262124438135793  1.74609375 12.24509108114502  1.74609375 12.252661462029808  C 1.78515625 12.207239176721078  1.875 12.112609415661224  2.015625 11.968772178850248  C 2.15625 11.82493494203927  2.2578125 11.713271823988645  2.3203125 11.633782824698368  C 2.3828125 11.554293825408092  2.470703125 11.44452330257866  2.583984375 11.304471256210078  C 2.6972656250000004 11.164419209841494  2.794921875 11.01868937780932  2.876953125 10.867281760113556  C 2.958984375 10.715874142417789  3.0390625000000004 10.54932576295245  3.1171875 10.36763662171753  C 2.1484374999999996 9.822569198012776  1.38671875 9.152590489709013  0.83203125 8.357700496806245  C 0.27734374999999994 7.562810503903478  0 6.714927844807191  0 5.8140525195173876  C 0 4.761769576531819  0.3671875 3.788975632836525  1.1015625 2.8956706884315118  C 1.8359375000000002 2.002365744026495  2.837890625 1.2964277265199886  4.107421875 0.7778566359119949  Z M 20.16796875 11.27040454222853  C 19.613281250000004 12.061509344688906  18.851562500000004 12.729595457771469  17.8828125 13.274662881476225  C 17.9609375 13.456352022711142  18.041015625 13.622900402176485  18.123046875 13.77430801987225  C 18.205078125000004 13.925715637568015  18.302734375000004 14.07144546960019  18.416015625 14.211497515968773  C 18.529296875 14.351549562337354  18.6171875 14.461320085166784  18.6796875 14.540809084457061  C 18.742187500000004 14.620298083747338  18.843750000000004 14.731961201797965  18.984375 14.875798438608943  C 19.125000000000004 15.01963567541992  19.214843750000004 15.114265436479773  19.25390625 15.159687721788503  C 19.261718750000004 15.167258102673292  19.277343750000004 15.184291459664065  19.30078125 15.210787792760824  C 19.324218750000004 15.237284125857581  19.341796875 15.256210078069554  19.353515625 15.267565649396735  C 19.365234375000004 15.278921220723918  19.380859375000004 15.297847172935889  19.400390625 15.324343506032648  C 19.419921875 15.350839839129405  19.43359375 15.371658386562574  19.44140625 15.38679914833215  L 19.470703125 15.443577004968063  C 19.470703125 15.443577004968063  19.478515625 15.466288147622427  19.494140625 15.511710432931157  C 19.509765625 15.557132718239886  19.51171875 15.581736456115449  19.5 15.585521646557842  C 19.48828125 15.589306837000235  19.484375000000004 15.6139105748758  19.48828125 15.659332860184527  C 19.46484375 15.765318192571563  19.4140625 15.848592382304236  19.3359375 15.90915542938254  C 19.257812500000004 15.969718476460846  19.171875 15.996214809557607  19.078125 15.988644428672817  C 18.687500000000004 15.9356517624793  18.351562500000004 15.875088715400993  18.0703125 15.8069552874379  C 16.867187500000004 15.504140052046369  15.78125 15.01963567541992  14.812500000000002 14.353442157558552  C 14.109375 14.474568251715166  13.421875000000002 14.53513129879347  12.749999999999998 14.53513129879347  C 10.6328125 14.53513129879347  8.7890625 14.035486160397445  7.21875 13.036195883605394  C 7.671875000000001 13.066477407144548  8.015625 13.081618168914122  8.25 13.081618168914122  C 9.5078125 13.081618168914122  10.71484375 12.911284599006388  11.87109375 12.570617459190915  C 13.027343750000002 12.229950319375444  14.05859375 11.7416607523066  14.964843749999998 11.105748757984387  C 15.94140625 10.409273716583865  16.691406250000004 9.60681334279631  17.21484375 8.698367636621718  C 17.738281249999996 7.789921930447125  18 6.828483558079014  18 5.8140525195173876  C 18 5.231133191388691  17.91015625 4.655784244144783  17.73046875 4.088005677785663  C 18.73828125 4.625502720605629  19.53515625 5.299266619351785  20.12109375 6.1092973740241305  C 20.70703125 6.919328128696474  21 7.789921930447125  21 8.721078779276082  C 21 9.629524485450673  20.722656250000004 10.479299739768155  20.16796875 11.27040454222853  Z " fill-rule="nonzero" fill="#333333" stroke="none" transform="matrix(1 0 0 1 31 354 )" />
  </g>
</svg>